<?xml version="1.0" encoding="UTF-8"?>
<svg width="62px" height="62px" viewBox="0 0 62 62" version="1.1" xmlns="http://www.w3.org/2000/svg" xmlns:xlink="http://www.w3.org/1999/xlink">
    <!-- Generator: sketchtool 55.2 (78181) - https://sketchapp.com -->
    <title>9B5D7F54-6AF6-4E22-9FF0-C813C1F394CC</title>
    <desc>Created with sketchtool.</desc>
    <g id="Page-1" stroke="none" stroke-width="1" fill="none" fill-rule="evenodd">
        <g id="01_HomePage_navigation_hubs" transform="translate(-1529.000000, -854.000000)">
            <g id="newsletter_icon" transform="translate(1530.000000, 855.000000)">
                <g id="Newsletter-icon">
                    <circle id="Oval" fill="#3ea547" cx="30" cy="30" r="30"></circle>
                    <circle id="Oval" stroke="#ffffff" stroke-width="2.12765957" cx="30" cy="30" r="29.8978723"></circle>
                    <path d="M43.4425532,24.5021277 L43.4425532,17.6702128" id="Path" stroke="#ffffff" stroke-width="2.12765957"></path>
                    <polyline id="Path" stroke="#ffffff" stroke-width="2.12765957" points="35.1468085 9.32765957 13.6744681 9.32765957 13.6744681 17.487234 13.6744681 28.2468085 13.6744681 50.2276596 43.4425532 50.2276596 43.4425532 43.0787234"></polyline>
                    <polygon id="Path" fill="#ffffff" fill-rule="nonzero" points="36.5531915 8.37446809 36.5531915 16.2638298 44.406383 16.2638298 36.5468085 8.36382979"></polygon>
                    <path d="M17.6553191,18.1425532 L26.206383,18.1425532" id="Path" stroke="#ffffff" stroke-width="2.12765957"></path>
                    <path d="M17.5,21.8765957 L37.806383,21.8765957" id="Path" stroke="#ffffff" stroke-width="2.12765957"></path>
                    <path d="M17.5,25.6085106 L37.806383,25.6085106" id="Path" stroke="#ffffff" stroke-width="2.12765957"></path>
                    <path d="M17.5,29.3425532 L37.806383,29.3425532" id="Path" stroke="#ffffff" stroke-width="2.12765957"></path>
                    <path d="M17.5,33.0744681 L30.6404255,33.0744681" id="Path" stroke="#ffffff" stroke-width="2.12765957"></path>
                    <polyline id="Path" stroke="#ffffff" stroke-width="1.70212766" stroke-linejoin="round" points="37.9021277 44.0723404 37.1553191 44.8255319 31.0893617 46.6255319 32.8808511 40.5276596 33.6276596 39.7744681"></polyline>
                    <path d="M45.8595745,28.0489362 L49.5744681,31.7765957 L37.9617021,43.4468085 L34.2553191,39.7170213 L45.8638298,28.0489362 L45.8595745,28.0489362 Z M45.8638298,26.1744681 L32.3914894,39.7170213 L37.9617021,45.3191489 L51.4340426,31.7765957 L45.8595745,26.1702128 L45.8638298,26.1744681 Z" id="Shape" fill="#ffffff" fill-rule="nonzero"></path>
                    <path d="M48.2404255,29.3829787 L36.3531915,41.3340426" id="Path" stroke="#ffffff" stroke-width="1.70212766"></path>
                    <path d="M53.9361702,27.9617021 L55.1468085,26.7425532 C55.3515602,26.4820329 55.3139875,26.1063059 55.0617021,25.8914894 L51.7234043,22.5297872 C51.5115191,22.2729611 51.1329498,22.2332113 50.8723404,22.4404255 L49.6595745,23.6595745" id="Path" stroke="#ffffff" stroke-width="1.70212766"></path>
                    <polyline id="Path" stroke="#ffffff" stroke-width="1.70212766" points="44.5489362 27.493617 47.7 24.3255319 53.2723404 29.9276596 50.1191489 33.0957447"></polyline>
                </g>
            </g>
        </g>
    </g>
</svg>